<svg width="28" height="28" viewBox="0 0 28 28" fill="none" xmlns="http://www.w3.org/2000/svg">
<path d="M22.8109 3.49626C22.5301 3.51709 22.2544 3.58297 21.9946 3.69138H21.9911C21.7417 3.79026 20.5561 4.28901 18.7536 5.04501L12.2943 7.76538C7.65943 9.71663 3.1033 11.6381 3.1033 11.6381L3.15755 11.6171C3.15755 11.6171 2.84343 11.7204 2.5153 11.9453C2.31213 12.0737 2.13759 12.2426 2.00255 12.4414C1.84155 12.6776 1.71205 13.039 1.76018 13.4126C1.83893 14.0444 2.24843 14.4233 2.54243 14.6324C2.83993 14.8441 3.12343 14.943 3.12343 14.943H3.13043L7.40305 16.3824C7.59468 16.9975 8.70505 20.648 8.97193 21.4889C9.12943 21.9911 9.28255 22.3053 9.47418 22.545C9.56576 22.6675 9.6763 22.7699 9.8058 22.8521C9.87307 22.8926 9.94547 22.9238 10.0211 22.9449L9.9773 22.9344C9.99043 22.9379 10.0009 22.9484 10.0106 22.9519C10.0456 22.9615 10.0692 22.965 10.1138 22.972C10.7902 23.1768 11.3336 22.7568 11.3336 22.7568L11.3642 22.7323L13.8868 20.4354L18.1148 23.679L18.2111 23.7201C19.0922 24.1069 19.9847 23.8916 20.4563 23.5119C20.9314 23.1295 21.1161 22.6404 21.1161 22.6404L21.1467 22.5616L24.4139 5.82376C24.5067 5.41076 24.5303 5.02401 24.4279 4.64863C24.3229 4.26846 24.079 3.94154 23.7446 3.73251C23.4641 3.56188 23.1388 3.47957 22.8109 3.49626ZM22.7226 5.29001C22.7191 5.34513 22.7296 5.33901 22.7051 5.44488V5.45451L19.4684 22.0183C19.4544 22.0419 19.4308 22.0935 19.3661 22.1451C19.2978 22.1994 19.2436 22.2335 18.9592 22.1206L13.7879 18.156L10.6642 21.0033L11.3204 16.812L19.7694 8.93701C20.1177 8.61326 20.0013 8.54501 20.0013 8.54501C20.0258 8.14776 19.4754 8.42863 19.4754 8.42863L8.82143 15.0288L8.81793 15.0113L3.71143 13.2919V13.2884L3.6983 13.2858L3.72455 13.2753L3.75255 13.2613L3.77968 13.2516C3.77968 13.2516 8.3393 11.3301 12.9742 9.37888C15.2947 8.40151 17.6327 7.41713 19.4308 6.65763C20.4972 6.20876 21.5647 5.76251 22.6333 5.31888C22.7051 5.29088 22.6709 5.29001 22.7226 5.29001Z" fill="white"/>
</svg>
